<?xml version="1.0" ?><svg id="Layer_1" style="enable-background:new 0 0 24 24;" version="1.1" viewBox="0 0 24 24" xml:space="preserve" xmlns="http://www.w3.org/2000/svg" xmlns:xlink="http://www.w3.org/1999/xlink"><style type="text/css">
	.st0{fill:#1E232D;}
</style><path class="st0" d="M21.1,4.2c-0.8-0.9-1.5-1.5-1.5-1.5l0,0C17.5,1,14.9,0,12,0C5.4,0,0,5.4,0,12s5.4,12,12,12s12-5.4,12-12  C24,9,22.9,6.3,21.1,4.2z M10.3,2.2c0,0.1-0.1,0.2-0.1,0.3c-2,4-3.6,6.4-7.3,5.5C4.2,4.9,7,2.7,10.3,2.2z M2,12  c0-0.7,0.1-1.5,0.2-2.2C3,10,3.7,10.1,4.3,10.1c4.1,0,6-3.7,7.6-6.8c0.2-0.4,0.4-0.9,0.7-1.3c2.8,0.2,5.2,1.5,6.9,3.4  c0.7,0.8,1.4,1.9,1.4,3.2c0,1.2-0.6,2.4-1.9,3.5C18,13,16.1,13,14.1,13c-2.3,0-4.8,0-6.6,1.4c-1,0.8-2.2,2.4-2.1,4.4  c0,0.2,0,0.5,0.1,0.8C3.4,17.8,2,15.1,2,12z M12,22c-0.9,0-1.8-0.1-2.6-0.4c-1.3-0.8-1.9-1.8-2-2.9c-0.1-1.2,0.6-2.2,1.3-2.8  c1.2-1,3.3-1,5.3-1c2.3,0,4.6,0,6.3-1.4c0.7-0.6,1.2-1.2,1.6-1.8c0,0,0,0.1,0,0.1C22,17.5,17.5,22,12,22z"/></svg>