<?xml version="1.0" ?><svg style="enable-background:new 0 0 100 100;" version="1.1" viewBox="0 0 100 100" xml:space="preserve" xmlns="http://www.w3.org/2000/svg" xmlns:xlink="http://www.w3.org/1999/xlink"><style type="text/css">
	.st0{fill:#231F20;}
	.st1{fill-rule:evenodd;clip-rule:evenodd;fill:#231F20;}
	.st2{fill-rule:evenodd;clip-rule:evenodd;}
</style><g id="Layer_3"/><g id="Layer_1"><g id="basecamp"><path d="M65.3,50.5c0-0.6-0.5-1.1-1.1-1.1c-0.3,0-0.5,0.1-0.7,0.3c-2.8,2.5-7.6,4.8-13.4,4.8h0c-5.8,0-10.5-2.3-13.4-4.8    c-0.2-0.2-0.5-0.3-0.8-0.3c-0.7,0-1.1,0.6-1.1,1.2c0,0.5,0.3,0.9,0.6,1.3c1.7,2.5,6.8,6.7,14.6,6.7H50c7.8,0,12.9-4.2,14.6-6.7    C64.9,51.6,65.3,51,65.3,50.5z"/><path d="M73,70c-2-1.1-3.9-3-4.7-5.6c-0.2-0.5,0-0.9,0.4-1.2c5.7-4.4,9.3-10.8,9.3-18c0-13.3-12.5-24.2-28-24.2    c-15.5,0-28,10.8-28,24.2c0,13.3,12.5,24.2,28,24.2c2,0,4-0.2,5.9-0.5c0.5-0.1,0.8,0,1.2,0.2c3.8,2.4,9.5,4.3,14.5,4.3    c1.6,0,2.2-1,2.2-2C73.8,70.7,73.5,70.2,73,70z M65.5,67.6c0.1,0.1,0.1,0.2,0.1,0.3c0,0.2-0.2,0.3-0.3,0.3c-1.4,0-5.7-2.3-8-4.2    c-0.3-0.3-0.7-0.4-1.4-0.2C54,64.2,52,64.4,50,64.4c-12.9,0-23.3-8.6-23.3-19.2c0-10.6,10.4-19.2,23.3-19.2    c12.9,0,23.3,8.6,23.3,19.2c0,6.3-3.7,12-9.4,15.5c-0.4,0.2-0.8,0.7-0.8,1.2C63.1,63,64.1,65.8,65.5,67.6z"/></g></g></svg>