<?xml version="1.0" encoding="UTF-8" standalone="no"?>
<!-- Created with Inkscape (http://www.inkscape.org/) -->
<svg
   xmlns:svg="http://www.w3.org/2000/svg"
   xmlns="http://www.w3.org/2000/svg"
   version="1.0"
   width="810"
   height="425"
   viewBox="0 0 803.515 803.516"
   id="svg2"
   xml:space="preserve">
 <defs
   id="defs4">
  <style
   type="text/css"
   id="style6" />
 
  
  
  
  
  
  
  
  
  
  
 </defs>
 <g
   transform="matrix(2.0645171,0,0,2.0645171,304.92018,-172.57971)"
   id="g2191"><path
     d="M -319.40304,434.54634 L -295.22434,434.54634 L -295.22434,338.76144 L -257.46854,422.27035 C -253.18982,432.31314 -247.05234,436.03404 -235.14974,436.03404 C -223.24594,436.03404 -217.48064,432.31425 -213.01644,422.27144 L -175.44624,338.76144 L -175.44624,434.54634 L -151.08204,434.54634 L -151.08204,338.76144 C -151.08204,329.46194 -154.80184,324.99775 -162.61364,322.58005 C -181.02594,317.00035 -193.30204,321.8368 -198.88174,334.29715 L -235.89304,416.87604 L -271.60334,334.29715 C -276.99753,321.83674 -289.45914,317.00035 -308.05814,322.58005 C -315.68326,324.99769 -319.40304,329.46191 -319.40304,338.76144 L -319.40304,434.54634 L -319.40304,434.54634 z "
     style="fill:#00546b"
     id="path12" /><path
     d="M -130.99424,356.61635 L -106.63004,356.61635 L -106.63004,409.25135 C -106.81556,412.22672 -105.70009,418.92424 -92.49524,419.10976 C -85.61337,419.2941 -40.04574,419.10976 -39.67354,419.10976 L -39.67354,356.24416 L -15.30814,356.24416 C -15.30814,356.24416 -15.30814,441.98636 -15.30814,442.35857 C -15.30814,463.56076 -41.53344,468.21166 -53.80834,468.39716 L -130.43654,468.39716 L -130.43654,452.21576 C -130.25102,452.21576 -53.80834,452.21576 -53.62284,452.21576 C -37.99924,450.54256 -39.85914,442.73074 -39.85914,440.12636 L -39.85914,433.80223 L -91.37864,433.80223 C -115.37184,433.61671 -130.80874,423.01502 -130.99434,410.92562 C -130.99434,409.80898 -130.43661,356.98852 -130.99434,356.61622 L -130.99424,356.61635 z "
     style="fill:#00546b"
     id="path14" /><path
     d="M 391.63976,295.61035 C 376.76056,295.23932 365.22896,296.72817 355.55716,300.81902 C 352.76731,301.93449 348.30307,301.93566 347.93086,305.46876 C 349.41973,306.95763 349.60524,309.37527 350.90741,311.42069 C 353.14071,315.13931 357.04485,320.16246 360.57913,322.76679 C 364.48445,325.74216 368.39095,328.71753 372.48183,331.32186 C 379.73592,335.7861 387.91993,338.38924 394.98733,342.85346 C 399.08053,345.45542 403.17019,348.80538 407.26223,351.59523 C 409.30883,353.08173 410.60982,355.50054 413.21415,356.43049 C 413.21415,356.24379 413.21415,356.05827 413.21415,355.87276 C 411.91198,354.19839 411.53977,351.78075 410.23878,349.92084 C 408.38006,348.06094 406.51898,346.38656 404.65908,344.52666 C 399.26489,337.27374 392.56968,330.94966 385.31568,325.74216 C 379.36494,321.65013 366.34448,316.07043 363.92678,309.18855 C 363.92796,309.18855 363.74008,309.00303 363.55456,308.81751 C 367.64658,308.44529 372.48185,306.95762 376.38836,305.84096 C 382.7125,304.16659 388.47776,304.5388 394.98736,302.86559 C 397.96273,302.12117 400.93928,301.19122 403.91465,300.26126 C 403.91465,299.70235 403.91465,299.1458 403.91465,298.58807 C 400.56825,295.23929 398.14943,290.77625 394.61514,287.61416 C 385.13012,279.42895 374.71394,271.43277 363.92674,264.73757 C 358.16034,261.01777 350.72074,258.59894 344.58334,255.43805 C 342.3524,254.32023 338.63142,253.76368 337.33043,251.90376 C 333.98166,247.81175 332.12176,242.41875 329.70413,237.58226 C 324.31231,227.35167 319.10243,216.00787 314.45273,205.22067 C 311.10633,197.96658 309.05973,190.71246 304.96771,184.01737 C 285.81101,152.39907 264.97981,133.24227 232.98931,114.45657 C 226.10744,110.55124 217.92461,108.87687 209.18281,106.83145 C 204.53424,106.64475 199.8833,106.27372 195.23351,106.08702 C 192.25814,104.78484 189.28159,101.25175 186.67725,99.577365 C 176.07795,92.881015 148.73595,78.375165 140.92415,97.531945 C 135.90218,109.62134 148.36376,121.52395 152.64125,127.66254 C 155.8045,131.94009 159.89534,136.77535 162.12746,141.61185 C 163.42963,144.77156 163.80066,148.1215 165.10283,151.46909 C 168.07938,159.65077 170.86805,168.76589 174.77455,176.39228 C 176.82115,180.29761 179.05209,184.38963 181.65642,187.92269 C 183.1441,189.96811 185.74726,190.89924 186.30617,194.24683 C 183.70302,197.96662 183.51632,203.54634 182.02745,208.19613 C 175.33228,229.21273 177.93661,255.25143 187.42164,270.68832 C 190.39701,275.3369 197.46554,285.56872 206.95064,281.66223 C 215.3202,278.31463 213.46029,267.71293 215.87793,258.41342 C 216.43685,256.18012 216.06463,254.69363 217.1801,253.20593 C 217.18128,253.39145 217.1801,253.57814 217.1801,253.57814 C 219.78443,258.78563 222.38759,263.80764 224.80522,269.01504 C 230.57162,278.12785 240.61442,287.61405 248.98392,293.93825 C 253.44934,297.28464 256.98244,303.05106 262.56212,305.09765 C 262.56212,304.90976 262.56212,304.72543 262.56212,304.53873 C 262.37542,304.53873 262.37542,304.53873 262.18991,304.53873 C 261.07326,302.86436 259.40006,302.12109 257.91237,300.81894 C 254.56478,297.47135 250.8438,293.37932 248.24065,289.65954 C 240.43001,279.24334 233.54695,267.71294 227.40955,255.80914 C 224.43418,250.04392 221.82985,243.71973 219.41221,237.95453 C 218.29556,235.72124 218.29556,232.37483 216.43566,231.25937 C 213.64581,235.3502 209.55497,238.88449 207.50837,243.90647 C 203.97645,251.90381 203.60305,261.76107 202.30088,271.99046 C 201.55762,272.17717 201.92866,271.99046 201.55644,272.36269 C 195.6057,270.87382 193.5591,264.73757 191.32694,259.52889 C 185.74724,246.32409 184.81729,225.12069 189.65374,209.87049 C 190.95591,205.96399 196.53561,193.68909 194.30349,189.96928 C 193.18802,186.43499 189.46704,184.38958 187.42162,181.59973 C 185.00398,178.06544 182.39965,173.60239 180.72645,169.69593 C 176.26221,159.28093 174.0301,147.74933 169.19485,137.33313 C 166.96273,132.49668 163.05741,127.47589 159.89534,123.01282 C 156.36224,117.99086 152.45573,114.45657 149.66584,108.50463 C 148.73707,106.45921 147.43372,103.11163 148.92141,100.8795 C 149.29363,99.391825 150.03688,98.834085 151.52574,98.461865 C 153.94338,96.415265 160.82525,99.019595 163.24284,100.13507 C 170.12471,102.92373 175.88994,105.52926 181.65634,109.43458 C 184.25949,111.29448 187.04934,114.82877 190.39693,115.75872 C 191.6991,115.75872 193.00126,115.75872 194.30343,115.75872 C 200.25535,117.05971 206.95053,116.13092 212.53023,117.80414 C 222.38865,120.96503 231.31473,125.61596 239.31333,130.63794 C 263.67873,146.07484 283.76423,168.02264 297.34253,194.24684 C 299.57465,198.5232 300.50342,202.43087 302.55002,206.89394 C 306.45652,216.00793 311.29179,225.30744 315.19712,234.23474 C 319.10244,242.97533 322.82224,251.90383 328.40192,259.15793 C 331.19295,263.06208 342.35122,265.10867 347.37312,267.15527 C 351.09292,268.82848 356.85933,270.31735 360.20692,272.36276 C 366.52988,276.2669 372.85402,280.73233 378.80592,285.00986 C 381.78247,287.24081 391.08082,291.89174 391.63972,295.61037 L 391.63976,295.61035 z "
     style="fill:#00546b"
     id="path16" /><path
     d="M 201.92776,133.98434 C 198.76569,133.98434 196.53476,134.35774 194.30264,134.91548 C 194.30264,134.9143 194.30264,135.10218 194.30264,135.2877 C 194.48934,135.2877 194.48816,135.2877 194.67486,135.2877 C 196.16373,138.26307 198.7657,140.30967 200.6256,142.91281 C 202.11447,145.88818 203.41545,148.86474 204.90432,151.84129 C 205.08983,151.65459 205.27535,151.46907 205.27535,151.46907 C 207.88087,149.60799 209.18185,146.63262 209.18185,142.16956 C 208.0652,140.86739 207.87968,139.56523 206.94973,138.26306 C 205.83426,136.40197 203.41544,135.47321 201.92776,133.98434 L 201.92776,133.98434 z "
     style="fill:#00546b"
     id="path18" /><path
     d="M 3.29076,434.54634 L 73.22376,434.54634 C 81.40662,434.54634 89.21846,432.87315 95.54136,429.89659 C 106.14426,425.06133 111.16496,418.5517 111.16496,409.9954 L 111.16496,392.13959 C 111.16496,385.25891 105.39856,378.74929 93.86816,374.28499 C 87.91742,372.05405 80.47666,370.75189 73.22256,370.75189 L 43.83756,370.75189 C 33.97914,370.75189 29.32936,367.77535 28.02726,361.26568 C 27.84056,360.52243 27.84056,359.77801 27.84056,359.03475 L 27.84056,348.06084 C 27.84056,347.50311 27.84056,346.75868 28.02726,346.01543 C 29.32943,340.99346 31.93258,339.69128 40.48886,338.76134 C 41.23211,338.76134 42.16206,338.76134 42.7198,338.76134 L 112.0962,338.76134 L 112.0962,322.57993 L 44.0219,322.57993 C 34.16466,322.57993 28.9572,323.13766 24.3074,324.62653 C 9.9859,329.0884 3.6618,336.15693 3.6618,348.61853 L 3.6618,362.75454 C 3.6618,373.72723 15.9379,383.02674 36.769,385.25883 C 39.00112,385.44435 41.41875,385.44435 43.83639,385.44435 L 68.94509,385.44435 C 69.87504,385.44435 70.80499,385.44435 71.54942,385.63105 C 79.17454,386.37431 82.52212,387.67647 84.75422,390.46632 C 86.2419,391.95282 86.61412,393.25617 86.61412,394.93057 L 86.6153,409.06417 C 86.6153,410.73855 85.49865,412.97185 83.26653,414.83174 C 81.03559,416.69164 77.50013,417.99381 72.85033,418.17933 C 71.92156,418.17933 71.36265,418.36484 70.43269,418.36484 L 3.29069,418.36366 L 3.29069,434.54626 L 3.29076,434.54634 z "
     style="fill:#c67f07"
     id="path20" /><path
     d="M 262.56176,406.46235 C 262.56176,423.01355 275.02336,432.31425 299.94526,434.17414 C 302.3629,434.36084 304.59501,434.54636 307.01265,434.54636 L 370.25165,434.54636 L 370.25165,418.36376 L 306.45605,418.36376 C 292.32125,418.36376 286.92595,414.83184 286.92595,406.27557 L 286.92713,322.57997 L 262.56173,322.57997 L 262.56173,406.46227 L 262.56176,406.46235 z "
     style="fill:#c67f07"
     id="path22" /><path
     d="M 126.60176,407.20534 L 126.60176,349.54845 C 126.60176,334.85595 137.01676,325.92745 157.29016,323.13765 C 159.52346,322.95095 161.7544,322.76661 163.79981,322.76661 L 209.92511,322.76543 C 212.34511,322.76543 214.38935,322.95213 216.80698,323.13765 C 237.08038,325.92632 247.30988,334.85595 247.30988,349.54845 L 247.31106,407.20534 C 247.31106,419.10804 243.03234,425.43335 232.98836,429.71084 L 256.79606,451.28524 L 228.71206,451.28524 L 209.36866,433.80174 L 189.83966,434.91721 L 163.79986,434.91721 C 159.5235,434.91721 154.68587,434.36066 149.66506,433.05849 C 134.22696,428.78095 126.60186,420.5969 126.60186,407.20539 L 126.60176,407.20534 z M 152.82586,405.90318 C 152.82586,406.64643 153.19808,407.39205 153.38478,408.322 C 154.68577,415.01716 161.0099,418.73699 170.68158,418.73699 L 192.62818,418.73699 L 172.54148,400.509 L 200.62668,400.509 L 218.29458,416.50489 C 221.64453,414.64382 223.68877,412.04184 224.4332,408.69426 C 224.61871,407.94983 224.61871,407.01987 224.61871,406.27544 L 224.61871,351.03614 C 224.61871,350.29288 224.61871,349.54845 224.4332,348.8052 C 223.13103,342.48105 216.8069,338.94678 207.3219,338.94678 L 170.6816,338.94678 C 159.8944,338.94678 152.8258,343.59653 152.8258,351.03617 L 152.8258,405.90328 L 152.82586,405.90318 z "
     style="fill:#c67f07"
     id="path24" /><path
     d="M 381.40976,434.73134 L 384.94405,434.73134 L 384.94405,421.15434 L 389.5938,421.15434 L 389.5938,418.36331 L 376.5733,418.36331 L 376.5733,421.15434 L 381.40975,421.15434 L 381.40975,434.73134 L 381.40976,434.73134 z M 408.37956,434.73134 L 411.72596,434.73134 L 411.72596,418.36325 L 406.70517,418.36325 L 402.61197,429.52265 L 398.1501,418.36325 L 393.31365,418.36325 L 393.31365,434.73134 L 396.47572,434.73134 L 396.47572,422.26974 L 396.66124,422.26974 L 401.31099,434.73134 L 403.72981,434.73134 L 408.37956,422.26974 L 408.37956,434.73134 L 408.37956,434.73134 z "
     style="fill:#c67f07"
     id="path26" /></g>
</svg>